<svg xmlns="http://www.w3.org/2000/svg" width="140" height="40"><path d="M135.02 40H4.9C2.2 40 0 37.87 0 35.27V4.73C0 2.13 2.2 0 4.9 0h130.12c2.7 0 4.98 2.12 4.98 4.73v30.54c0 2.6-2.28 4.73-4.98 4.73z"/><path d="M139.03 35.27c0 2.1-1.78 3.83-3.98 3.83H4.87A3.9 3.9 0 0 1 .9 35.27V4.72A3.9 3.9 0 0 1 4.86.9h130.18a3.9 3.9 0 0 1 3.98 3.82v30.55z"/><path fill="#FFF" d="M30.13 19.78a5.77 5.77 0 0 1 2.76-4.86 6 6 0 0 0-4.7-2.53c-1.95-.22-3.86 1.17-4.86 1.17-1.03 0-2.57-1.16-4.23-1.12a6.21 6.21 0 0 0-5.23 3.2c-2.27 3.9-.58 9.68 1.6 12.85 1.08 1.55 2.35 3.3 4 3.23 1.63-.07 2.24-1.04 4.2-1.04 1.94 0 2.5 1.03 4.2 1 1.75-.04 2.85-1.57 3.9-3.14a13.02 13.02 0 0 0 1.78-3.62c-.04-.02-3.4-1.3-3.42-5.16zm-3.2-9.48a5.69 5.69 0 0 0 1.3-4.08 5.77 5.77 0 0 0-3.75 1.94c-.8.94-1.53 2.5-1.34 3.94 1.42.1 2.88-.72 3.8-1.8zm26.71 21.2h-2.27l-1.24-3.9H45.8l-1.18 3.9h-2.2l4.27-13.3h2.64l4.3 13.3zm-3.9-5.55-1.1-3.47c-.13-.36-.35-1.2-.68-2.5h-.04c-.13.56-.34 1.4-.63 2.5l-1.12 3.47h3.58zm14.92.65c0 1.62-.44 2.9-1.32 3.86a3.89 3.89 0 0 1-2.94 1.26c-1.27 0-2.17-.45-2.73-1.36h-.04v5.05H55.5V25.08c0-1.03-.03-2.08-.08-3.16h1.88l.12 1.53h.04a3.54 3.54 0 0 1 3.23-1.72c1.13 0 2.07.46 2.83 1.35.75.9 1.13 2.08 1.13 3.54zm-2.17.07c0-.94-.22-1.7-.64-2.3a2.15 2.15 0 0 0-1.86-.96c-.52 0-1 .18-1.43.53-.43.35-.7.8-.84 1.37-.06.27-.1.48-.1.65v1.6c0 .7.22 1.3.65 1.77.42.48.98.72 1.66.72.8 0 1.43-.3 1.88-.92.45-.62.67-1.44.67-2.45zm13.21-.07c0 1.62-.44 2.9-1.33 3.86a3.86 3.86 0 0 1-2.94 1.26c-1.26 0-2.17-.45-2.72-1.36h-.03v5.05h-2.13V25.08c0-1.03-.03-2.08-.08-3.16h1.87l.12 1.53h.04a3.52 3.52 0 0 1 3.23-1.72c1.13 0 2.08.46 2.83 1.35a5.3 5.3 0 0 1 1.14 3.54zm-2.17.07c0-.94-.2-1.7-.64-2.3a2.16 2.16 0 0 0-1.86-.96c-.53 0-1 .18-1.43.53-.42.35-.7.8-.83 1.37-.07.27-.1.48-.1.65v1.6c0 .7.2 1.3.64 1.77.44.48 1 .72 1.68.72.8 0 1.43-.3 1.88-.92.44-.62.67-1.44.67-2.45zm14.51 1.1a3.6 3.6 0 0 1-1.18 2.77 5.3 5.3 0 0 1-3.63 1.16 6.3 6.3 0 0 1-3.45-.83l.5-1.78c.93.56 1.96.84 3.08.84.8 0 1.43-.18 1.88-.54.44-.36.67-.85.67-1.45 0-.54-.18-1-.55-1.37-.36-.37-.98-.7-1.83-1.03-2.33-.87-3.5-2.14-3.5-3.8 0-1.1.4-2 1.23-2.7a4.8 4.8 0 0 1 3.26-1.05c1.22 0 2.22.2 3.03.63L87 20.37c-.76-.4-1.6-.6-2.55-.6-.75 0-1.34.17-1.76.54-.37.34-.54.74-.54 1.22 0 .52.2.96.6 1.3.36.32 1 .66 1.94 1.03 1.15.46 2 1 2.53 1.62.54.6.8 1.38.8 2.3zm7.06-4.27h-2.36v4.67c0 1.18.4 1.77 1.24 1.77.38 0 .7-.03.95-.1l.06 1.62c-.43.16-.98.24-1.67.24a2.6 2.6 0 0 1-1.98-.77c-.47-.5-.7-1.38-.7-2.6v-4.82h-1.4v-1.6h1.4v-1.75l2.1-.63v2.4h2.34v1.6zm10.6 3.13c0 1.47-.43 2.68-1.27 3.63a4.56 4.56 0 0 1-3.52 1.46c-1.4 0-2.52-.47-3.35-1.4a5.06 5.06 0 0 1-1.26-3.53c0-1.5.42-2.72 1.3-3.67.85-.94 2-1.42 3.47-1.42 1.4 0 2.54.48 3.4 1.4a5.2 5.2 0 0 1 1.22 3.53zm-2.22.07c0-.9-.2-1.65-.57-2.28a2.08 2.08 0 0 0-1.9-1.15c-.86 0-1.52.38-1.96 1.15-.4.63-.57 1.4-.57 2.32 0 .88.18 1.64.57 2.27.46.78 1.1 1.16 1.93 1.16.82 0 1.46-.4 1.92-1.17.38-.65.58-1.42.58-2.3zm9.14-2.92c-.2-.04-.44-.06-.67-.06-.75 0-1.33.3-1.74.85-.34.5-.52 1.14-.52 1.9v5.03h-2.13l.02-6.57c0-1.1-.03-2.1-.08-3.02h1.84l.08 1.85h.06c.23-.64.58-1.14 1.07-1.53.47-.34.98-.5 1.54-.5.2 0 .36 0 .52.03v2.03zm9.54 2.47c0 .38-.03.7-.08.97h-6.4c.03.95.34 1.67.93 2.17.55.44 1.25.66 2.1.66.95 0 1.8-.15 2.6-.45l.32 1.5c-.9.38-1.98.58-3.2.58-1.5 0-2.67-.44-3.52-1.3a4.9 4.9 0 0 1-1.27-3.53c0-1.45.4-2.66 1.18-3.62a4.15 4.15 0 0 1 3.37-1.54c1.38 0 2.43.5 3.14 1.53.57.82.86 1.82.86 3.02zm-2.04-.55a2.92 2.92 0 0 0-.4-1.64c-.38-.6-.95-.9-1.7-.9-.7 0-1.27.3-1.7.88-.36.46-.57 1-.64 1.66h4.44zM49.05 10c0 1.2-.35 2.07-1.06 2.67-.66.55-1.6.82-2.8.82-.6 0-1.1-.04-1.52-.1V7c.55-.1 1.15-.13 1.8-.13 1.15 0 2 .25 2.6.74.64.56.97 1.36.97 2.4zm-1.1.04c0-.76-.2-1.35-.6-1.76-.42-.4-1-.6-1.78-.6-.33 0-.6 0-.85.06v4.9l.7.02c.8 0 1.43-.23 1.87-.67.42-.46.64-1.1.64-1.96zm6.95 1c0 .72-.2 1.32-.6 1.78-.45.48-1.02.72-1.74.72-.7 0-1.24-.23-1.65-.7-.4-.45-.6-1.03-.6-1.73 0-.72.2-1.3.63-1.78.42-.46 1-.7 1.7-.7s1.26.23 1.68.7c.4.44.6 1 .6 1.72zm-1.08.03c0-.43-.1-.8-.28-1.12a1.04 1.04 0 0 0-.94-.56c-.42 0-.74.18-.96.55-.2.3-.28.7-.28 1.14 0 .42.1.8.28 1.1.23.38.54.57.95.57.4 0 .7-.2.93-.57.2-.32.3-.7.3-1.13zm8.95-2.35-1.48 4.7h-.97l-.6-2.03c-.17-.53-.3-1.03-.4-1.54-.1.52-.23 1.03-.4 1.53l-.64 2.03h-.98l-1.38-4.7H57l.54 2.23c.13.53.24 1.03.33 1.5.1-.38.22-.88.4-1.5l.67-2.24h.86l.64 2.2c.15.54.28 1.06.38 1.55h.02c.07-.48.18-1 .32-1.55l.58-2.2h1.02zm5.43 4.71h-1.05v-2.7c0-.83-.32-1.24-.95-1.24-.3 0-.56.1-.76.33-.2.23-.3.5-.3.8v2.8H64.1v-3.36c0-.42 0-.87-.03-1.35H65l.04.73h.03c.12-.22.3-.4.54-.56.3-.2.6-.28.96-.28.44 0 .8.14 1.1.43.36.35.54.87.54 1.56v2.83zm2.9 0h-1.06V6.56h1.05m6.17 4.48c0 .72-.2 1.32-.62 1.78-.44.48-1 .72-1.73.72-.68 0-1.23-.23-1.64-.7a2.53 2.53 0 0 1-.62-1.73c0-.72.2-1.3.64-1.78.42-.46 1-.7 1.7-.7s1.25.23 1.68.7c.4.44.6 1 .6 1.72zm-1.1.03c0-.43-.08-.8-.27-1.12-.23-.37-.54-.56-.95-.56-.42 0-.74.18-.96.55-.2.3-.3.7-.3 1.14 0 .42.1.8.3 1.1.22.38.53.57.94.57.4 0 .7-.2.94-.57.2-.32.3-.7.3-1.13zm6.17 2.36h-.94l-.1-.54h-.02c-.32.42-.78.64-1.37.64-.44 0-.8-.14-1.07-.43a1.27 1.27 0 0 1-.37-.95c0-.57.24-1 .72-1.32.48-.3 1.16-.45 2.04-.44v-.1c0-.62-.33-.93-.98-.93-.47 0-.88.12-1.23.35l-.2-.7c.43-.26.97-.4 1.6-.4 1.24 0 1.86.65 1.86 1.95v1.74c0 .48.02.86.07 1.13zm-1.1-1.62v-.7c-1.14-.03-1.72.28-1.72.94 0 .24.07.43.2.55.14.1.32.17.52.17.23 0 .45-.07.64-.22a.9.9 0 0 0 .37-.55v-.2zm7.05 1.62h-.93l-.04-.75h-.02c-.3.57-.8.86-1.52.86-.57 0-1.04-.22-1.4-.67a2.5 2.5 0 0 1-.58-1.74c0-.76.2-1.38.62-1.85.4-.44.87-.66 1.45-.66.63 0 1.08.2 1.33.64h.02v-2.7h1.05v5.6c0 .46 0 .88.03 1.27zm-1.08-1.98v-.8c0-.13 0-.24-.03-.32a1.3 1.3 0 0 0-.38-.64c-.2-.18-.44-.26-.7-.26-.4 0-.7.15-.93.46-.22.3-.34.7-.34 1.2 0 .46.1.84.32 1.13.23.3.54.47.92.47a1 1 0 0 0 .83-.4c.2-.23.3-.52.3-.86zm10.05-.41c0 .72-.2 1.32-.62 1.78-.44.48-1 .72-1.73.72-.7 0-1.24-.23-1.65-.7a2.53 2.53 0 0 1-.62-1.73c0-.72.2-1.3.64-1.78.42-.46 1-.7 1.7-.7s1.26.23 1.68.7c.4.44.6 1 .6 1.72zm-1.1.03c0-.43-.08-.8-.27-1.12a1.04 1.04 0 0 0-.94-.56c-.42 0-.74.18-.96.55-.2.3-.28.7-.28 1.14 0 .42.1.8.28 1.1.23.38.54.57.95.57.4 0 .72-.2.94-.57.2-.32.3-.7.3-1.13zm6.73 2.36h-1.04v-2.7c0-.83-.32-1.24-.95-1.24-.33 0-.58.1-.77.33-.2.23-.3.5-.3.8v2.8H98.8v-3.36c0-.42-.02-.87-.05-1.35h.92l.05.73h.03c.12-.22.3-.4.54-.56.28-.2.6-.28.94-.28.44 0 .8.14 1.1.43.36.35.54.87.54 1.56v2.83zm7.06-3.93h-1.16v2.3c0 .58.2.87.6.87.2 0 .36-.02.48-.05l.03.8c-.22.07-.5.1-.83.1-.4 0-.73-.12-.97-.37-.23-.25-.35-.67-.35-1.27V9.5h-.7l.02-.78h.68v-.87l1.03-.3V8.7h1.16v.78zm5.54 3.93h-1.05v-2.68c0-.84-.3-1.27-.94-1.27-.5 0-.83.25-1 .74a.87.87 0 0 0-.06.38v2.83h-1.05V6.56h1.04V9.4h.02c.33-.52.8-.78 1.4-.78.45 0 .8.14 1.1.43.35.35.52.88.52 1.58v2.8zm5.72-2.58c0 .2 0 .35-.03.48h-3.14c0 .46.16.82.45 1.06.27.2.6.32 1.03.32.47 0 .9-.07 1.28-.22l.16.73c-.44.2-.97.3-1.58.3a2.3 2.3 0 0 1-1.72-.65c-.42-.43-.62-1-.62-1.74 0-.7.2-1.3.58-1.77a2 2 0 0 1 1.65-.76c.67 0 1.2.27 1.54.77.27.4.4.9.4 1.48zm-1-.27c.02-.3-.05-.58-.2-.8-.18-.3-.45-.44-.83-.44a.98.98 0 0 0-.83.43c-.18.22-.28.5-.3.8h2.17z"/></svg>