<svg width="140" height="40" fill="none" xmlns="http://www.w3.org/2000/svg"><path d="M135.022 40H4.905a5.02 5.02 0 0 1-3.462-1.391A4.666 4.666 0 0 1 0 35.27V4.73C0 2.13 2.199 0 4.905 0h130.117c1.308 0 2.563.496 3.495 1.381A4.72 4.72 0 0 1 140 4.73v30.54a4.72 4.72 0 0 1-1.483 3.349A5.076 5.076 0 0 1 135.022 40Z" fill="#000"/><path d="M139 35.2c0 2.1-1.764 3.8-3.974 3.8H4.974C2.795 39 1 37.3 1 35.2V4.8C1 2.7 2.785 1 4.974 1h130.052a4.072 4.072 0 0 1 1.518.28c.482.19.921.47 1.29.822.37.354.663.774.863 1.237.2.463.303.96.303 1.461v30.4Z" fill="#000"/><path fill-rule="evenodd" clip-rule="evenodd" d="M27.026 7.281H15.895c-5.23 0-7.155 1.916-7.155 7.16v11.131c0 5.242 1.918 7.16 7.16 7.16h11.13c5.242 0 7.162-1.918 7.162-7.16V14.44c-.009-5.243-1.925-7.159-7.166-7.159Z" fill="#C8102E"/><path d="M13.779 20.006h.674v3.327h-.674V21.98h-1.524v1.352h-.676v-3.327h.676v1.342h1.524v-1.342Zm3.802 1.903c0 .541-.268.83-.756.83-.487 0-.76-.297-.76-.853v-1.882h-.676v1.902c0 .94.52 1.472 1.427 1.472.906 0 1.44-.545 1.44-1.498v-1.882h-.675v1.911Zm7.8.384-.754-2.287h-.552l-.754 2.287-.74-2.285h-.718l1.159 3.323h.56l.755-2.184.756 2.184h.564l1.157-3.323h-.7l-.733 2.285Zm2.647-.393h1.228v-.605h-1.228v-.68h1.783v-.607h-2.448v3.322h2.509v-.605h-1.844V21.9Zm2.651 1.428h.667v-3.322h-.667v3.322Zm-11.09-.691-.3.693h-.69l1.464-3.324h.596l1.46 3.324h-.708l-.3-.693H19.59Zm.251-.6h1.016l-.506-1.183-.51 1.184Zm1.624-6.267a4.233 4.233 0 0 1-4.233-4.233h.598a3.638 3.638 0 0 0 7.274 0h.599a4.234 4.234 0 0 1-4.238 4.233ZM49.49 27.003H44.8l-1.14 3.13H41.6l4.586-11.695h1.947l4.69 11.696h-2.157l-1.176-3.131Zm-4.093-1.6h3.493l-1.25-3.35a23.39 23.39 0 0 1-.507-1.533c-.152.496-.317 1-.493 1.518l-1.243 3.365Zm8.257-1.849c0-.645-.022-1.356-.064-2.133h1.866a9.3 9.3 0 0 1 .144 1.107 3.534 3.534 0 0 1 2.667-1.27 3.006 3.006 0 0 1 2.813 1.83 5.56 5.56 0 0 1 .456 2.4c.02.898-.162 1.79-.533 2.608a3.731 3.731 0 0 1-1.456 1.637 4.16 4.16 0 0 1-2.162.557 5.307 5.307 0 0 1-1.752-.299V33.6l-1.995.171.016-10.216ZM58.896 28c.406-.534.611-1.334.611-2.4 0-.973-.169-1.684-.506-2.134a1.6 1.6 0 0 0-1.334-.656 2.151 2.151 0 0 0-1.067.267 3.998 3.998 0 0 0-.936.733v4.667c.221.104.454.181.694.23.258.055.52.084.784.084A2.069 2.069 0 0 0 58.897 28Zm3.854-4.446c0-.645-.022-1.356-.065-2.133h1.867c.072.365.121.735.147 1.107.777-.847 1.666-1.27 2.666-1.27a3.005 3.005 0 0 1 2.814 1.83 5.56 5.56 0 0 1 .456 2.4 5.986 5.986 0 0 1-.52 2.608 3.732 3.732 0 0 1-1.459 1.637 4.152 4.152 0 0 1-2.163.557 5.307 5.307 0 0 1-1.751-.299V33.6l-1.995.171.002-10.216ZM68 28c.406-.546.608-1.346.608-2.4 0-.973-.168-1.684-.504-2.134a1.6 1.6 0 0 0-1.333-.656 2.163 2.163 0 0 0-1.067.267 3.998 3.998 0 0 0-.936.733v4.667c.222.103.454.18.694.23.257.055.52.084.784.084A2.075 2.075 0 0 0 68 28Zm6.301 1.58a4.85 4.85 0 0 1-1.987-2.045 6.714 6.714 0 0 1-.693-3.149 6.586 6.586 0 0 1 .8-3.347 5.155 5.155 0 0 1 2.176-2.066 6.811 6.811 0 0 1 3.088-.691 8.08 8.08 0 0 1 1.925.224c.59.139 1.162.343 1.707.608l-.517 1.533a7.082 7.082 0 0 0-3.038-.757 4.25 4.25 0 0 0-2.133.533 3.546 3.546 0 0 0-1.427 1.531 5.37 5.37 0 0 0-.506 2.437 5.902 5.902 0 0 0 .39 2.219 3.288 3.288 0 0 0 1.236 1.536c.638.4 1.382.596 2.134.565.39 0 .778-.034 1.162-.098.372-.06.737-.154 1.091-.283v-2.379h-2.704v-1.549h4.643v4.93c-.674.314-1.38.555-2.104.718a9.818 9.818 0 0 1-2.192.25 6.194 6.194 0 0 1-3.05-.72Zm14.432.554a7.665 7.665 0 0 1-.139-1.155c-.333.387-.74.705-1.197.933a3.561 3.561 0 0 1-1.667.384A3.138 3.138 0 0 1 84.36 30a2.247 2.247 0 0 1-.98-.888 2.715 2.715 0 0 1-.364-1.448 2.481 2.481 0 0 1 .914-2.021c.608-.505 1.622-.757 3.043-.755.529 0 1.057.037 1.581.112v-.17c0-.768-.163-1.31-.49-1.627a1.968 1.968 0 0 0-1.414-.472 5.58 5.58 0 0 0-1.365.187A7.157 7.157 0 0 0 84 23.36l-.315-1.45a7.68 7.68 0 0 1 1.403-.446 8.23 8.23 0 0 1 1.842-.202 4.797 4.797 0 0 1 1.92.344c.537.237.973.653 1.235 1.178.327.703.48 1.474.445 2.248V28.5c0 .355.022.901.064 1.637l-1.861-.002Zm-1.195-1.6c.385-.18.73-.432 1.016-.744v-1.6a12.891 12.891 0 0 0-1.333-.088c-.823 0-1.393.133-1.71.4a1.335 1.335 0 0 0-.471 1.066 1.223 1.223 0 0 0 .343.955c.26.22.594.33.934.312.425-.007.842-.11 1.221-.301Zm4.534-.491V17.75l1.984-.16v10.099c-.028.28.039.562.19.8a.735.735 0 0 0 .602.232c.181-.008.36-.039.534-.091l.234 1.43a3.434 3.434 0 0 1-.69.18 4.708 4.708 0 0 1-.771.07c-1.389-.009-2.083-.765-2.083-2.267Zm4.963 0V17.75l1.987-.16v10.099c-.028.28.038.562.19.8a.735.735 0 0 0 .602.232c.18-.008.36-.039.533-.091l.232 1.43a3.398 3.398 0 0 1-.688.18 4.718 4.718 0 0 1-.773.07c-1.387-.009-2.081-.765-2.083-2.267Zm11.704-2.012h-5.699c.091 1.826.96 2.739 2.608 2.739a5.606 5.606 0 0 0 1.256-.15 7.5 7.5 0 0 0 1.229-.4l.438 1.366a7.446 7.446 0 0 1-3.286.71 4.8 4.8 0 0 1-2.341-.534 3.363 3.363 0 0 1-1.435-1.51 5.39 5.39 0 0 1-.48-2.373 5.619 5.619 0 0 1 .51-2.485 3.7 3.7 0 0 1 1.416-1.6 3.975 3.975 0 0 1 2.096-.55 3.52 3.52 0 0 1 2.061.58c.55.381.977.916 1.227 1.538.274.677.41 1.402.4 2.133v.536Zm-1.944-1.267a2.501 2.501 0 0 0-.534-1.562 1.594 1.594 0 0 0-1.25-.534 1.681 1.681 0 0 0-1.264.534 2.783 2.783 0 0 0-.659 1.557l3.707.005Zm3.453-1.154c0-.477-.024-1.208-.066-2.187h1.866c.032.243.062.534.094.867.032.333.048.61.058.821a7.21 7.21 0 0 1 .683-.965c.22-.259.486-.475.784-.637.313-.17.665-.255 1.021-.248.27-.007.54.026.8.098l-.25 1.728a2.295 2.295 0 0 0-1.867.267 5.05 5.05 0 0 0-1.139 1.179v5.6h-1.984V23.61Zm6.349 10.089a4.807 4.807 0 0 1-.717-.174l.363-1.453c.167.045.337.081.509.11.192.033.386.051.581.052.889 0 1.55-.568 1.984-1.704l.131-.322-3.213-8.784h2.133l1.632 4.91c.209.63.378 1.275.507 1.927.152-.63.328-1.258.533-1.888l1.627-4.95h2.008l-3.2 8.825a9.12 9.12 0 0 1-.979 2.018 3.424 3.424 0 0 1-1.237 1.137 3.698 3.698 0 0 1-1.726.373 5.45 5.45 0 0 1-.936-.078ZM41.6 7.3h3.546l-.098.86h-2.414v1.66h2.275v.8h-2.275v1.84h2.542l-.088.873H41.6V7.3Zm5.998 2.955L45.73 7.301h1.184l1.27 2.17 1.333-2.17h1.149L48.8 10.218l2.019 3.115h-1.2l-1.437-2.374-1.464 2.374h-1.15l2.03-3.078ZM51.584 7.3h1.627c.762 0 1.347.156 1.754.467a1.6 1.6 0 0 1 .608 1.35c.012.367-.08.73-.266 1.048a1.795 1.795 0 0 1-.76.688c-.35.165-.733.247-1.12.24a4.533 4.533 0 0 1-.8-.083v2.323h-1.043V7.3Zm2.613 2.694a1.09 1.09 0 0 0 .334-.85.924.924 0 0 0-.339-.8c-.3-.183-.65-.269-1-.246h-.565v2.133c.198.036.398.057.6.062.35.026.696-.08.97-.299ZM56.602 7.3h1.04v5.142h2.496l-.087.89h-3.449v-6.03Zm5.121 5.738a2.501 2.501 0 0 1-1.013-1.067 3.466 3.466 0 0 1-.35-1.6 3.568 3.568 0 0 1 .374-1.67A2.603 2.603 0 0 1 61.8 7.599a3.336 3.336 0 0 1 1.667-.38 3.12 3.12 0 0 1 1.57.377c.435.247.785.618 1.006 1.067.238.492.356 1.034.344 1.58a3.582 3.582 0 0 1-.376 1.689c-.239.465-.61.85-1.067 1.104a3.33 3.33 0 0 1-1.64.39 3.107 3.107 0 0 1-1.581-.387Zm2.699-.74c.294-.194.522-.473.656-.8a3.01 3.01 0 0 0 .216-1.175 3.267 3.267 0 0 0-.192-1.16c-.12-.322-.334-.6-.614-.8a2.067 2.067 0 0 0-2.157 0c-.295.204-.524.49-.661.821a2.8 2.8 0 0 0-.222 1.134c-.006.4.065.799.208 1.173a1.718 1.718 0 0 0 1.699 1.115c.379.009.75-.098 1.067-.307Zm3.125-4.997h1.888A2.507 2.507 0 0 1 71 7.715a1.4 1.4 0 0 1 .534 1.178c.006.293-.06.582-.193.843a1.865 1.865 0 0 1-.474.595 2.133 2.133 0 0 1-.587.335l1.867 2.667h-1.214l-1.57-2.4h-.766v2.4h-1.05V7.301Zm1.635 2.854c.231.005.46-.046.669-.147.187-.09.346-.232.456-.408.11-.188.166-.403.162-.621a.762.762 0 0 0-.287-.664 1.403 1.403 0 0 0-.838-.211h-.754v2.061l.591-.01ZM72.96 7.3h3.555l-.102.86h-2.4v1.66h2.254v.8h-2.275v1.84h2.541l-.077.873H72.96V7.3Zm7.42 0h1.04v6.033h-1.04V7.3Zm3.796.87H82.31l.09-.87h4.694l-.096.87h-1.78v5.163h-1.042V8.17Zm7.438 4.867a2.497 2.497 0 0 1-1.011-1.066 3.433 3.433 0 0 1-.352-1.6 3.568 3.568 0 0 1 .373-1.67 2.616 2.616 0 0 1 1.067-1.104 3.35 3.35 0 0 1 1.656-.389 3.107 3.107 0 0 1 1.587.387 2.48 2.48 0 0 1 1.005 1.066c.239.493.358 1.035.347 1.582a3.552 3.552 0 0 1-.379 1.688c-.238.466-.61.85-1.067 1.104a3.314 3.314 0 0 1-1.64.39 3.106 3.106 0 0 1-1.586-.388Zm2.701-.738c.293-.196.52-.474.653-.8.15-.374.223-.774.216-1.176a3.27 3.27 0 0 0-.192-1.16 1.71 1.71 0 0 0-.61-.8 2.07 2.07 0 0 0-2.16 0c-.295.204-.525.49-.662.821-.15.359-.225.745-.221 1.134-.006.4.064.799.208 1.173.127.329.349.613.637.816a1.81 1.81 0 0 0 1.067.298 1.87 1.87 0 0 0 1.064-.306ZM97.44 7.3h1.194l2.984 4.675a20.214 20.214 0 0 1-.037-1.229V7.301h.965v6.032h-1.157l-3.03-4.75c.03.534.046 1.016.046 1.435v3.315h-.966V7.3Z" fill="#fff"/></svg>