<svg xmlns="http://www.w3.org/2000/svg" width="140" height="40"><defs><linearGradient id="a" x1="91.49%" x2="-38.35%" y1="4.95%" y2="71.91%"><stop offset="0%" stop-color="#00A0FF"/><stop offset="1%" stop-color="#00A1FF"/><stop offset="26%" stop-color="#00BEFF"/><stop offset="51%" stop-color="#00D2FF"/><stop offset="76%" stop-color="#00DFFF"/><stop offset="100%" stop-color="#00E3FF"/></linearGradient><linearGradient id="b" x1="107.68%" x2="-130.64%" y1="50%" y2="50%"><stop offset="0%" stop-color="#FFE000"/><stop offset="41%" stop-color="#FFBD00"/><stop offset="78%" stop-color="orange"/><stop offset="100%" stop-color="#FF9C00"/></linearGradient><linearGradient id="c" x1="86.22%" x2="-50.15%" y1="17.88%" y2="194.7%"><stop offset="0%" stop-color="#FF3A44"/><stop offset="100%" stop-color="#C31162"/></linearGradient><linearGradient id="d" x1="-18.75%" x2="42.12%" y1="-54.05%" y2="24.92%"><stop offset="0%" stop-color="#32A071"/><stop offset="7%" stop-color="#2DA771"/><stop offset="48%" stop-color="#15CF74"/><stop offset="80%" stop-color="#06E775"/><stop offset="100%" stop-color="#00F076"/></linearGradient></defs><rect width="140" height="40" rx="5"/><path d="M134.8.8a4.28 4.28 0 0 1 4.37 4.2v30c0 2.32-1.95 4.2-4.36 4.2H5.2A4.29 4.29 0 0 1 .82 35V5A4.3 4.3 0 0 1 5.2.8h129.6zm0-.8H5.2C2.3 0 0 2.24 0 5v30c0 2.76 2.32 5 5.2 5h129.6a5.1 5.1 0 0 0 5.2-5V5c0-2.76-2.32-5-5.2-5z"/><path fill="#FFF" stroke="#FFF" stroke-width=".2" d="M47.42 10.24c.03.74-.24 1.46-.75 2-.57.6-1.37.92-2.2.9a3.23 3.23 0 0 1-2.9-1.96 3.17 3.17 0 0 1 .7-3.42c.57-.6 1.37-.92 2.2-.9a2.9 2.9 0 0 1 2.17.93l-.53.53c-.4-.47-1-.73-1.63-.7a2.31 2.31 0 0 0-2.34 2.4c0 .95.55 1.82 1.42 2.2.88.38 1.9.2 2.58-.47.3-.33.5-.77.5-1.22h-2.17v-.7h2.9c.04.14.05.3.05.44zM52 7.74h-2.7v1.9h2.46v.72H49.3v1.9H52V13h-3.5V7H52zM55.28 13h-.77V7.74h-1.67V7H57v.74h-1.72zm4.66 0V7h.77v6zm4.19 0h-.77V7.74h-1.68V7h4.12v.74h-1.67zm9.47-.78a3.14 3.14 0 0 1-4.4 0 3.26 3.26 0 0 1 0-4.45 3.09 3.09 0 0 1 4.4 0 3.2 3.2 0 0 1 0 4.45zm-3.82-.5c.9.9 2.36.9 3.26 0 .9-.98.9-2.46 0-3.44a2.3 2.3 0 0 0-3.26 0c-.9.98-.9 2.46 0 3.44zm5.8 1.28V7h.94l2.92 4.67V7h.77v6h-.8l-3.04-4.9V13z"/><path fill="#FFF" d="M68.14 21.75a4.24 4.24 0 0 0-4.23 4.26 4.27 4.27 0 0 0 4.27 4.25c2.34 0 4.24-1.9 4.24-4.25a4.2 4.2 0 0 0-4.26-4.25zm0 6.83a2.56 2.56 0 0 1-2.5-1.46 2.58 2.58 0 1 1 4.9-1.12 2.47 2.47 0 0 1-2.4 2.58zm-9.3-6.83a4.24 4.24 0 0 0-4.25 4.26 4.24 4.24 0 1 0 8.49 0 4.2 4.2 0 0 0-4.28-4.25zm0 6.83A2.58 2.58 0 1 1 61.22 26a2.47 2.47 0 0 1-2.4 2.58zm-11.1-5.52v1.8h4.32a3.77 3.77 0 0 1-1 2.27 4.37 4.37 0 0 1-3.33 1.32 4.8 4.8 0 1 1 3.27-8.3l1.27-1.28A6.36 6.36 0 0 0 47.74 17a6.6 6.6 0 0 0-5.94 9.98 6.6 6.6 0 0 0 5.94 3.23c1.73.1 3.4-.6 4.6-1.84a5.93 5.93 0 0 0 1.57-4.22c0-.38-.02-.76-.1-1.13l-6.06.06zm45.3 1.4a3.95 3.95 0 0 0-3.63-2.7 4.02 4.02 0 0 0-4 4.25c0 1.13.42 2.22 1.22 3.02a4.26 4.26 0 0 0 6.55-.65l-1.45-1a2.44 2.44 0 0 1-2.1 1.18c-.88.03-1.7-.48-2.05-1.3l5.7-2.34-.22-.44zm-5.8 1.42a2.36 2.36 0 0 1 2.23-2.48c.66-.04 1.28.3 1.58.9l-3.8 1.58zM82.65 30h1.86V17.5h-1.87V30zm-3.07-7.3h-.07c-.57-.64-1.38-1-2.24-1a4.25 4.25 0 0 0-4.05 4.25c0 2.28 1.8 4.15 4.06 4.26.86.02 1.68-.34 2.24-1h.06v.62c0 1.63-.87 2.5-2.27 2.5a2.37 2.37 0 0 1-2.15-1.5l-1.63.67A4.08 4.08 0 0 0 77.3 34c2.18 0 4-1.3 4-4.43V22h-1.73v.7zm-2.14 5.88a2.59 2.59 0 0 1 0-5.16A2.4 2.4 0 0 1 79.72 26c.06.65-.16 1.3-.6 1.78-.42.5-1.03.78-1.68.8zM101.8 17.5h-4.46V30h1.87v-4.74h2.62a3.87 3.87 0 0 0 3.6-5.9 3.9 3.9 0 0 0-3.6-1.86zm0 6h-2.6v-4.26h2.65c1.18 0 2.15.96 2.15 2.15 0 1.17-.97 2.13-2.15 2.13l-.04-.03zm11.54-1.8c-1.4-.08-2.7.67-3.33 1.9l1.67.7c.33-.62 1-.98 1.7-.92.48-.06.96.08 1.34.4.38.3.62.73.67 1.2v.14a4.14 4.14 0 0 0-1.95-.48c-1.8 0-3.6 1-3.6 2.8.04.8.4 1.52.97 2.04s1.34.78 2.12.72c.96.07 1.88-.4 2.4-1.2h.06v1h1.8v-4.8c0-2.2-1.66-3.47-3.8-3.47l-.04-.03zm-.23 6.85c-.6 0-1.45-.3-1.45-1.06 0-1 1.06-1.34 2-1.34.6 0 1.18.13 1.7.42a2.26 2.26 0 0 1-2.2 2l-.04-.03zM123.75 22l-2.14 5.42h-.06L119.32 22h-2l3.33 7.58-1.9 4.2h1.95L125.82 22h-2.08zm-16.8 8h1.86V17.5h-1.87V30z"/><path fill="url(#a)" d="M10.44 7.54c-.33.4-.5.9-.46 1.4v22.12a2 2 0 0 0 .46 1.4l.07.07 12.4-12.38v-.3L10.5 7.48l-.06.07z"/><path fill="url(#b)" d="m27 24.28-4.1-4.13v-.3l4.1-4.13.1.05 4.9 2.8c1.4.78 1.4 2.08 0 2.88l-4.9 2.78-.1.05z"/><path fill="url(#c)" d="M27.12 24.22 22.9 20 10.44 32.46c.6.52 1.46.54 2.08.06l14.6-8.3"/><path fill="url(#d)" d="m27.12 15.78-14.6-8.3a1.66 1.66 0 0 0-2.1.06L22.9 20l4.22-4.22z"/><path fill="#FFF" d="m27 24.13-14.5 8.25c-.58.44-1.4.44-2 0l-.06.07.07.07c.6.45 1.42.45 2 0l14.62-8.3-.12-.1z" opacity=".2"/><path fill="#FFF" d="M10.44 32.32c-.33-.4-.5-.9-.46-1.4v.15a2 2 0 0 0 .46 1.4l.07-.07-.06-.08zM32 21.3l-5 2.83.1.1 4.9-2.8c.57-.26.95-.8 1-1.43-.1.56-.48 1.04-1 1.3z" opacity=".12"/><path fill="#FFF" d="M12.5 7.62 32 18.7c.52.26.9.74 1 1.3a1.75 1.75 0 0 0-1-1.44L12.5 7.48c-1.4-.8-2.53-.13-2.53 1.47v.15c.03-1.6 1.15-2.27 2.54-1.48z" opacity=".25"/></svg>